<?xml version="1.0" encoding="UTF-8" standalone="no"?>
<!-- Created with Inkscape (http://www.inkscape.org/) -->

<svg
   width="166.40034mm"
   height="135.53181mm"
   viewBox="0 0 166.40034 135.53181"
   version="1.1"
   id="svg1"
   xmlns="http://www.w3.org/2000/svg"
   xmlns:svg="http://www.w3.org/2000/svg">
  <defs
     id="defs1" />
  <g
     id="layer1"
     transform="translate(-21.781081,-81.934235)">
    <rect
       style="fill:#ffecc0;fill-opacity:1;stroke:#727272;stroke-width:8.16767;stroke-linecap:round;stroke-opacity:1"
       id="rect1"
       width="151.66383"
       height="106.02554"
       x="29.168083"
       y="95.487228"
       ry="9.5105963" />
    <g
       id="g83"
       transform="translate(-263.7584,-21.17879)">
      <path
         d="m 307.67321,130.53518 v 12.28711 a 15.505853,13.428192 0 0 1 2.01641,0.11834 15.505853,13.428192 0 0 1 1.62781,0.28112 15.505853,13.428192 0 0 1 0.35915,0.0646 15.505853,13.428192 0 0 1 1.68052,0.49403 15.505853,13.428192 0 0 1 0.22996,0.0703 15.505853,13.428192 0 0 1 1.62419,0.69195 15.505853,13.428192 0 0 1 0.18759,0.0832 15.505853,13.428192 0 0 1 1.54616,0.89193 15.505853,13.428192 0 0 1 0.12867,0.0775 15.505853,13.428192 0 0 1 1.4242,1.07642 15.505853,13.428192 0 0 1 0.091,0.0729 15.505853,13.428192 0 0 1 1.26608,1.24127 15.505853,13.428192 0 0 1 0.0646,0.0677 15.505853,13.428192 0 0 1 1.07797,1.38389 15.505853,13.428192 0 0 1 0.046,0.0641 15.505853,13.428192 0 0 1 0.3359,0.47025 24.749998,22.204788 0 0 1 5.6534,-0.58704 24.749998,22.204788 0 0 1 8.05739,1.20975 15.505853,13.428192 0 0 1 0.0987,-0.10956 15.505853,13.428192 0 0 1 0.47698,-0.52917 15.505853,13.428192 0 0 1 0.85783,-0.92345 15.505853,13.428192 0 0 1 0.56275,-0.47078 15.505853,13.428192 0 0 1 0.9834,-0.80356 15.505853,13.428192 0 0 1 0.6594,-0.41548 15.505853,13.428192 0 0 1 1.08572,-0.66921 15.505853,13.428192 0 0 1 0.68678,-0.31626 15.505853,13.428192 0 0 1 1.20406,-0.54519 15.505853,13.428192 0 0 1 0.82062,-0.2589 15.505853,13.428192 0 0 1 1.19372,-0.37 15.505853,13.428192 0 0 1 1.01648,-0.18707 15.505853,13.428192 0 0 1 1.07487,-0.19534 15.505853,13.428192 0 0 1 2.13682,-0.12919 15.505853,13.428192 0 0 1 13.62656,7.02025 24.749998,22.204788 0 0 1 11.12335,-2.36885 24.749998,22.204788 0 0 1 8.04395,1.20561 11.736611,10.795214 0 0 1 9.29194,-4.20026 11.736611,10.795214 0 0 1 1.98128,0.15503 15.505853,13.428192 0 0 1 1.38544,-1.34772 15.505853,13.428192 0 0 1 0.53227,-0.40205 15.505853,13.428192 0 0 1 1.05058,-0.77411 15.505853,13.428192 0 0 1 0.6935,-0.39946 15.505853,13.428192 0 0 1 1.0573,-0.58187 15.505853,13.428192 0 0 1 0.79892,-0.33952 15.505853,13.428192 0 0 1 1.0852,-0.42891 15.505853,13.428192 0 0 1 0.87799,-0.25683 15.505853,13.428192 0 0 1 1.10897,-0.28577 15.505853,13.428192 0 0 1 0.92708,-0.15917 15.505853,13.428192 0 0 1 1.12809,-0.14831 15.505853,13.428192 0 0 1 0.36122,-0.0475 6,6 0 0 1 3.57549,-1.18184 6,6 0 0 1 5.03949,2.74298 15.505853,13.428192 0 0 1 0.91984,0.49196 15.505853,13.428192 0 0 1 0.59945,0.32091 15.505853,13.428192 0 0 1 0.9865,0.67231 15.505853,13.428192 0 0 1 0.47129,0.32505 15.505853,13.428192 0 0 1 1.30948,1.1405 11.736611,10.795214 0 0 1 6.03632,-3.51142 11.736611,10.795214 0 0 1 2.96313,-0.35398 11.736611,10.795214 0 0 1 4.92063,0.99477 v -12.41785 z"
         style="fill:#02aed6;stroke-width:8.523;stroke-linecap:round"
         id="path83" />
      <path
         d="m 327.03275,149.38468 a 24.749998,22.204788 0 0 0 -5.6534,0.58704 15.505853,13.428192 0 0 1 0.55294,1.07074 15.505853,13.428192 0 0 1 0.27543,0.53382 15.505853,13.428192 0 0 1 0.59066,1.71824 l 0.37879,-0.69143 a 3.8513342,4.0663526 3.3012587e-6 0 1 3.33727,-2.02985 3.8513342,4.0663526 3.3012587e-6 0 1 3.33158,2.0376 l 2.61689,4.79712 a 15.505853,13.428192 0 0 1 0.0568,-0.40669 15.505853,13.428192 0 0 1 0.15606,-1.11569 15.505853,13.428192 0 0 1 0.14056,-0.63097 15.505853,13.428192 0 0 1 0.33124,-1.08573 15.505853,13.428192 0 0 1 0.21343,-0.58497 15.505853,13.428192 0 0 1 0.57774,-1.19373 15.505853,13.428192 0 0 1 0.19792,-0.38395 15.505853,13.428192 0 0 1 0.95343,-1.4118 24.749998,22.204788 0 0 0 -8.05739,-1.20975 z"
         style="fill:#1ad2fd;stroke-width:8.523;stroke-linecap:round"
         id="path82" />
      <path
         d="m 372.69818,149.32267 a 24.749998,22.204788 0 0 0 -11.12335,2.36885 15.505853,13.428192 0 0 1 0.81287,1.51308 15.505853,13.428192 0 0 1 0.94671,3.22926 15.505853,13.428192 0 0 1 0.11989,1.66553 15.505853,13.428192 0 0 1 -2.63963,7.49412 13.114492,12.462767 0 0 1 1.16168,1.89963 13.114492,12.462767 0 0 1 3.31091,-0.4036 13.114492,12.462767 0 0 1 1.1343,0.0465 13.114492,12.462767 0 0 1 1.12603,0.14004 l 0.91674,-1.6123 a 2.8867605,2.9390671 2.13881e-6 0 1 2.50114,-1.46709 2.8867605,2.9390671 2.13881e-6 0 1 1.79369,0.63975 20.074377,21.94149 0 0 1 0.1571,-0.0951 20.074377,21.94149 0 0 1 1.23765,-0.74931 20.074377,21.94149 0 0 1 0.84284,-0.49196 20.074377,21.94149 0 0 1 1.45469,-0.64286 20.074377,21.94149 0 0 1 0.74776,-0.32194 20.074377,21.94149 0 0 1 2.28875,-0.67438 11.736611,10.795214 0 0 1 -1.19063,-4.73769 11.736611,10.795214 0 0 1 2.44481,-6.59495 24.749998,22.204788 0 0 0 -8.04395,-1.20561 z"
         style="fill:#1ad2fd;stroke-width:8.523;stroke-linecap:round"
         id="path81" />
      <path
         d="m 347.94827,144.67127 a 15.505853,13.428192 0 0 0 -15.48536,12.73669 l 0.21704,0.39791 a 20.074377,21.94149 0 0 1 4.08141,-0.45837 20.074377,21.94149 0 0 1 2.76159,0.20877 20.074377,21.94149 0 0 1 5.3144,1.64538 20.074377,21.94149 0 0 1 5.2e-4,0 20.074377,21.94149 0 0 1 2.45101,1.4056 20.074377,21.94149 0 0 1 5.2e-4,0 13.114492,12.462767 0 0 1 2.81119,-0.2899 13.114492,12.462767 0 0 1 1.78594,0.11627 13.114492,12.462767 0 0 1 3.43907,0.9157 13.114492,12.462767 0 0 1 3.05149,1.76372 13.114492,12.462767 0 0 1 1.30793,1.16117 13.114492,12.462767 0 0 1 1.12965,1.3193 15.505853,13.428192 0 0 0 2.63963,-7.49412 15.505853,13.428192 0 0 0 -15.50603,-13.42812 z"
         style="fill:#1ad2fd;stroke-width:5.24612;stroke-linecap:round"
         id="path80" />
      <path
         d="m 307.67321,142.82229 v 18.49344 a 20.074377,21.94149 0 0 1 4.5682,-0.57567 20.074377,21.94149 0 0 1 2.15232,0.13436 20.074377,21.94149 0 0 1 0.70642,0.11679 20.074377,21.94149 0 0 1 1.4304,0.27026 20.074377,21.94149 0 0 1 0.80564,0.22531 20.074377,21.94149 0 0 1 0.84232,0.23513 20.074377,21.94149 0 0 0 5.2e-4,0 l 4.61935,-8.42739 a 15.505853,13.428192 0 0 0 -15.12517,-10.47223 z"
         style="fill:#1ad2fd;stroke-width:5.24612;stroke-linecap:round"
         id="path79" />
      <path
         d="m 403.02191,141.31179 a 15.505853,13.428192 0 0 0 -11.00656,5.17126 11.736611,10.795214 0 0 1 1.59628,0.35863 11.736611,10.795214 0 0 1 2.95228,1.31103 11.736611,10.795214 0 0 1 1.29759,0.92708 11.736611,10.795214 0 0 1 5.2e-4,0 11.736611,10.795214 0 0 1 1.14412,1.08417 11.736611,10.795214 0 0 1 0.96893,1.2206 11.736611,10.795214 0 0 1 1.68052,4.23126 11.736611,10.795214 0 0 1 0.11524,1.50741 11.736611,10.795214 0 0 1 -0.19896,1.97817 13.114492,12.462767 0 0 1 3.9765,2.07171 20.074377,21.94149 0 0 1 8.09822,-5.42499 11.736611,10.795214 0 0 1 -0.46044,-2.99465 11.736611,10.795214 0 0 1 0.11007,-1.45573 11.736611,10.795214 0 0 1 0.10335,-0.47749 11.736611,10.795214 0 0 1 0.21963,-0.95084 11.736611,10.795214 0 0 1 0.20464,-0.55398 11.736611,10.795214 0 0 1 0.32349,-0.81907 11.736611,10.795214 0 0 1 0.30282,-0.56534 11.736611,10.795214 0 0 1 0.42323,-0.73329 11.736611,10.795214 0 0 1 0.38809,-0.53433 11.736611,10.795214 0 0 1 0.52245,-0.66249 11.736611,10.795214 0 0 1 0.13953,-0.17725 15.505853,13.428192 0 0 0 -4.28656,-2.95073 6,6 0 0 1 0.96066,3.25717 6,6 0 0 1 -6.00015,6.00015 6,6 0 0 1 -5.99963,-6.00015 6,6 0 0 1 2.42414,-4.81831 z"
         style="fill:#1ad2fd;stroke-width:5.24612;stroke-linecap:round"
         id="path78" />
      <path
         d="m 312.24141,160.74006 a 20.074377,21.94149 0 0 0 -4.5682,0.57567 v 19.57142 l 10.5053,-19.16524 a 20.074377,21.94149 0 0 0 -5.9371,-0.98185 z"
         style="fill:#71e3fe;stroke-width:7.6302;stroke-linecap:round"
         id="path77" />
      <path
         d="m 336.76136,157.3475 a 20.074377,21.94149 0 0 0 -4.08141,0.45837 l 5.42293,9.941 a 13.114492,12.462767 0 0 1 0.43098,-0.78135 13.114492,12.462767 0 0 1 0.35915,-0.65164 13.114492,12.462767 0 0 1 0.57516,-0.78187 13.114492,12.462767 0 0 1 0.44183,-0.59221 13.114492,12.462767 0 0 1 0.71055,-0.73174 13.114492,12.462767 0 0 1 0.48886,-0.49764 13.114492,12.462767 0 0 1 0.90486,-0.70952 13.114492,12.462767 0 0 1 0.45682,-0.35553 13.114492,12.462767 0 0 1 1.01595,-0.59841 13.114492,12.462767 0 0 1 0.49093,-0.28681 13.114492,12.462767 0 0 1 1.14412,-0.48421 13.114492,12.462767 0 0 1 0.47025,-0.19843 13.114492,12.462767 0 0 1 1.69654,-0.47026 20.074377,21.94149 0 0 0 -10.52752,-3.25975 z"
         style="fill:#71e3fe;stroke-width:7.6302;stroke-linecap:round"
         id="path76" />
      <path
         d="m 390.03407,146.32802 a 11.736611,10.795214 0 0 0 -11.73675,10.79521 11.736611,10.795214 0 0 0 1.19063,4.73769 20.074377,21.94149 0 0 1 4.04058,-0.44907 20.074377,21.94149 0 0 1 4.63692,0.59325 13.114492,12.462767 0 0 1 9.18497,-3.56723 13.114492,12.462767 0 0 1 1.42989,0.0744 13.114492,12.462767 0 0 1 2.79156,0.58911 11.736611,10.795214 0 0 0 0.19896,-1.97817 11.736611,10.795214 0 0 0 -11.73676,-10.79521 z"
         style="fill:#1ad2fd;stroke-width:4.09231;stroke-linecap:round"
         id="path75" />
      <path
         d="m 424.9229,141.95826 a 11.736611,10.795214 0 0 0 -11.73675,10.79521 11.736611,10.795214 0 0 0 0.46044,2.99465 20.074377,21.94149 0 0 1 6.14277,-1.05265 20.074377,21.94149 0 0 1 10.05417,2.9502 v -14.69264 a 11.736611,10.795214 0 0 0 -4.92063,-0.99477 z"
         style="fill:#1ad2fd;stroke-width:4.09231;stroke-linecap:round"
         id="path74" />
      <path
         d="m 383.52853,161.41185 a 20.074377,21.94149 0 0 0 -10.76937,3.4246 2.8867605,2.9390671 2.13881e-6 0 1 0.70332,0.83302 l 10.64792,18.82159 h 16.93489 a 20.074377,21.94149 0 0 1 -0.47284,-1.50946 13.114492,12.462767 0 0 1 -0.41135,0.0739 13.114492,12.462767 0 0 1 -0.66817,0.11938 13.114492,12.462767 0 0 1 -0.71985,0.1049 13.114492,12.462767 0 0 1 -1.42266,0.0837 13.114492,12.462767 0 0 1 -13.11444,-12.4628 13.114492,12.462767 0 0 1 3.92947,-8.89558 20.074377,21.94149 0 0 0 -4.63692,-0.59325 z"
         style="fill:#71e3fe;stroke-width:7.6302;stroke-linecap:round"
         id="path73" />
      <path
         d="m 419.78936,154.69547 a 20.074377,21.94149 0 0 0 -14.24099,6.47764 13.114492,12.462767 0 0 1 4.48965,6.57324 13.114492,12.462767 0 0 1 0,5.2e-4 13.114492,12.462767 0 0 1 0.31988,1.56373 13.114492,12.462767 0 0 1 0.10697,1.59008 13.114492,12.462767 0 0 1 -0.0491,1.08004 2.4147193,2.5477483 1.7374638e-6 0 1 1.5353,1.20768 l 6.17017,11.30266 h 11.72228 v -26.84539 a 20.074377,21.94149 0 0 0 -10.05417,-2.9502 z m -16.98552,27.5394 a 13.114492,12.462767 0 0 1 -1.21647,0.45527 13.114492,12.462767 0 0 1 -0.39429,0.11317 13.114492,12.462767 0 0 1 -0.62063,0.17829 20.074377,21.94149 0 0 0 0.47284,1.50946 h 0.52141 z"
         style="fill:#71e3fe;stroke-width:7.6302;stroke-linecap:round"
         id="path72" />
      <path
         d="m 365.28726,167.08954 a 13.114492,12.462767 0 0 0 -3.31091,0.4036 13.114492,12.462767 0 0 1 0.53692,1.26503 13.114492,12.462767 0 0 1 0.62322,2.65979 13.114492,12.462767 0 0 1 0.0786,1.36219 13.114492,12.462767 0 0 1 -0.29766,2.64015 l 4.63021,-8.14421 a 13.114492,12.462767 0 0 0 -2.26033,-0.18655 z m -5.83685,14.43013 a 13.114492,12.462767 0 0 1 -0.37207,0.32143 13.114492,12.462767 0 0 1 -0.46509,0.40204 13.114492,12.462767 0 0 1 -0.75912,0.56482 13.114492,12.462767 0 0 1 -0.48938,0.33745 13.114492,12.462767 0 0 1 -0.90175,0.51108 13.114492,12.462767 0 0 1 -0.447,0.24081 13.114492,12.462767 0 0 1 -1.42937,0.59376 h 3.17448 z"
         style="fill:#71e3fe;stroke-width:4.64799;stroke-linecap:round"
         id="path70" />
      <path
         d="m 397.35042,158.43787 a 13.114492,12.462767 0 0 0 -13.11444,12.46281 13.114492,12.462767 0 0 0 13.11444,12.4628 13.114492,12.462767 0 0 0 5.45393,-1.12913 h 5.2e-4 l 4.96507,-9.05112 a 2.4147193,2.5477483 1.7374638e-6 0 1 2.09238,-1.27124 2.4147193,2.5477483 1.7374638e-6 0 1 0.55346,0.0687 13.114492,12.462767 0 0 0 0.0491,-1.08004 13.114492,12.462767 0 0 0 -13.11445,-12.46281 z"
         style="fill:#71e3fe;stroke-width:4.64799;stroke-linecap:round"
         id="path69" />
      <path
         d="m 350.10059,160.31735 a 13.114492,12.462767 0 0 0 -11.99771,7.42952 13.114492,12.462767 0 0 0 0,5.1e-4 l 9.13432,16.74368 h 7.34943 a 13.114492,12.462767 0 0 0 4.86378,-2.97139 l 5.2e-4,-5.2e-4 3.46542,-6.09627 a 13.114492,12.462767 0 0 0 5.2e-4,-0.002 13.114492,12.462767 0 0 0 0.29817,-2.64118 13.114492,12.462767 0 0 0 -13.11445,-12.4628 z"
         style="fill:#71e3fe;stroke-width:4.64799;stroke-linecap:round"
         id="path68" />
      <path
         d="m 347.2372,184.49106 5.15369,9.44697 5.37022,-9.44697 z m 36.8732,0 8.86303,15.66571 8.59327,-15.66571 z m 34.01085,0 11.72228,21.47311 v -21.47311 z"
         style="fill:#71e3fe;stroke-width:8.62906;stroke-linecap:round"
         id="path67" />
      <path
         d="m 406.5974,140.12995 a 6,6 0 0 0 -5.99963,6.00015 6,6 0 0 0 5.99963,6.00015 6,6 0 0 0 6.00015,-6.00015 6,6 0 0 0 -6.00015,-6.00015 z"
         style="fill:#faf610;stroke-width:6.54162;stroke-linecap:round"
         id="path66" />
      <path
         d="m 409.85405,179.55441 -14.04772,25.61033 2.06964,3.65766 h 27.95489 z"
         style="baseline-shift:baseline;display:inline;overflow:visible;vector-effect:none;fill:#02b40d;stroke-linecap:round;stroke-linejoin:round;enable-background:accumulate;stop-color:#000000;stop-opacity:1"
         id="path65" />
      <path
         d="m 409.86232,171.91199 a 2.4147193,2.5477483 1.7374638e-6 0 0 -2.09238,1.27124 l -14.79651,26.97354 2.8329,5.00797 14.04772,-25.61033 15.97681,29.26799 h 4.01267 v -2.85823 L 411.95108,173.1884 a 2.4147193,2.5477483 1.7374638e-6 0 0 -2.08876,-1.27641 z"
         style="baseline-shift:baseline;display:inline;overflow:visible;vector-effect:none;fill:#02b40d;stroke-linecap:round;stroke-linejoin:round;enable-background:accumulate;stop-color:#000000;stop-opacity:1"
         id="path64" />
      <path
         d="m 370.95617,173.0127 -15.29829,26.9136 4.32118,7.92148 30.70149,0.0331 z"
         style="baseline-shift:baseline;display:inline;overflow:visible;vector-effect:none;fill:#02a40c;stroke-linecap:round;stroke-linejoin:round;enable-background:accumulate;stop-color:#000000;stop-opacity:1"
         id="path63" />
      <path
         d="m 370.96547,164.1967 a 2.8867605,2.9390671 2.13881e-6 0 0 -2.50114,1.46709 l -16.07344,28.27424 3.26699,5.98827 15.29829,-26.9136 19.72438,34.86815 -30.70149,-0.0331 0.53175,0.97462 h 37.36516 l -24.41349,-43.15293 a 2.8867605,2.9390671 2.13881e-6 0 0 -2.49701,-1.47277 z"
         style="baseline-shift:baseline;display:inline;overflow:visible;vector-effect:none;fill:#02a40c;stroke-linecap:round;stroke-linejoin:round;enable-background:accumulate;stop-color:#000000;stop-opacity:1"
         id="path62" />
      <path
         d="m 326.50203,162.77094 -18.82882,34.35088 v 11.70058 h 43.94874 z"
         style="baseline-shift:baseline;display:inline;overflow:visible;vector-effect:none;fill:#028609;stroke-linecap:round;stroke-linejoin:round;enable-background:accumulate;stop-color:#000000;stop-opacity:1"
         id="path61" />
      <path
         d="m 326.51444,150.57324 a 3.8513342,4.0663526 3.3012587e-6 0 0 -3.33727,2.02985 l -15.50396,28.28406 v 16.23467 l 18.82882,-34.35088 25.11992,46.05146 h 8.88886 l -30.66479,-56.21156 a 3.8513342,4.0663526 3.3012587e-6 0 0 -3.33158,-2.0376 z"
         style="baseline-shift:baseline;display:inline;overflow:visible;vector-effect:none;fill:#028609;stroke-linecap:round;stroke-linejoin:round;enable-background:accumulate;stop-color:#000000;stop-opacity:1"
         id="path60" />
    </g>
    <rect
       style="fill:#484848;fill-opacity:1;stroke:none;stroke-width:5.8187;stroke-linecap:round;stroke-linejoin:round;stroke-opacity:1"
       id="rect83"
       width="15"
       height="200"
       x="-60.147846"
       y="75.098267"
       ry="0"
       transform="rotate(-51.775865)" />
  </g>
</svg>
